<svg xmlns="http://www.w3.org/2000/svg" xmlns:xlink="http://www.w3.org/1999/xlink" width="500" zoomAndPan="magnify" viewBox="0 0 375 374.999991" height="500" preserveAspectRatio="xMidYMid meet" version="1.0"><defs><g/><clipPath id="b82c0641c9"><path d="M 196 112.070312 L 249.890625 112.070312 L 249.890625 213 L 196 213 Z M 196 112.070312 " clip-rule="nonzero"/></clipPath></defs><path fill="#e22229" d="M 143.359375 166.082031 C 144.253906 166.089844 145.308594 166.195312 146.566406 166.414062 C 151.597656 167.277344 156.964844 168.542969 159.339844 174.53125 C 160.613281 177.753906 159.6875 179.917969 156.03125 179.367188 C 152.214844 178.792969 145.074219 177.898438 141.671875 176.65625 C 137.53125 175.140625 138.402344 170.539062 139.164062 168.199219 C 139.585938 166.894531 140.707031 166.050781 143.359375 166.082031 Z M 186.957031 120.609375 C 177.832031 120.609375 168.503906 120.570312 159.578125 121.800781 C 155.445312 122.378906 152.777344 124.8125 150.863281 127.628906 C 146.507812 134.042969 143.703125 140.800781 141.253906 147.648438 L 130.308594 147.648438 C 127.257812 147.648438 125.441406 150.019531 126.238281 152.96875 C 127.105469 156.222656 128.097656 157.8125 132.867188 158.925781 L 134.691406 159.347656 C 133.265625 162.066406 132.226562 164.933594 132.226562 167.503906 L 132.226562 188.546875 C 132.226562 192.070312 134.667969 195.046875 137.503906 196.152344 L 137.503906 206.003906 C 137.503906 207.925781 139.050781 209.476562 140.976562 209.476562 L 150.816406 209.476562 C 152.734375 209.476562 154.289062 207.925781 154.289062 206.003906 L 154.289062 196.644531 L 203.25 196.644531 L 203.25 191.308594 C 203.25 188.644531 204.742188 185.96875 206.601562 184.058594 L 206.601562 183.011719 C 205.984375 182.46875 204.5 180.441406 203.730469 178.234375 C 202.136719 179.011719 200.390625 179.457031 198.625 179.457031 L 175.296875 179.457031 C 170.785156 179.457031 166.34375 176.628906 164.625 172.421875 C 163.804688 170.433594 164.203125 168.371094 165.988281 168.371094 L 203.238281 168.371094 L 203.238281 162.082031 C 197.207031 160.667969 192.078125 156.597656 190.332031 150.890625 C 189.207031 150.90625 188.046875 150.9375 186.957031 150.9375 C 170.214844 150.9375 147.660156 148.691406 147.660156 148.691406 C 149.683594 142.582031 152.894531 137.085938 156.5 131.25 C 158.179688 128.53125 160.679688 127.0625 163.398438 126.875 C 170.585938 126.382812 179.09375 126.101562 186.957031 126.089844 C 187.859375 126.097656 188.785156 126.113281 189.699219 126.121094 L 189.699219 121.960938 C 189.699219 121.507812 189.730469 121.058594 189.765625 120.613281 C 188.832031 120.609375 187.890625 120.609375 186.957031 120.609375 Z M 186.957031 120.609375 " fill-opacity="1" fill-rule="evenodd"/><g clip-path="url(#b82c0641c9)"><path fill="#e22229" d="M 234.859375 123.929688 L 234.859375 126.527344 C 234.859375 127.875 233.769531 128.960938 232.421875 128.960938 L 214.03125 128.960938 C 212.683594 128.960938 211.597656 127.875 211.597656 126.527344 L 211.597656 123.929688 C 211.597656 122.582031 212.683594 121.503906 214.03125 121.503906 L 232.425781 121.503906 C 233.769531 121.503906 234.859375 122.582031 234.859375 123.929688 Z M 249.722656 121.957031 C 249.722656 116.503906 245.335938 112.105469 239.882812 112.105469 L 206.582031 112.105469 C 201.128906 112.105469 196.738281 116.503906 196.738281 121.957031 L 196.738281 146.589844 C 196.738281 152.042969 201.128906 156.433594 206.582031 156.433594 L 210.28125 156.433594 L 210.28125 175.730469 C 210.28125 176.777344 210.710938 177.257812 211.273438 177.753906 L 214.59375 180.699219 C 216.117188 182.046875 216.046875 184.601562 214.648438 185.992188 L 211.304688 189.300781 C 210.632812 189.96875 210.285156 190.414062 210.285156 191.308594 L 210.285156 200.25 C 210.195312 201.15625 210.453125 202.164062 211.054688 203.042969 C 224.867188 216.058594 223.171875 215.234375 234.921875 203.601562 C 235.824219 202.703125 236.105469 201.605469 236.171875 200.414062 L 236.171875 156.433594 L 239.882812 156.433594 C 245.335938 156.433594 249.722656 152.046875 249.722656 146.589844 Z M 249.722656 121.957031 " fill-opacity="1" fill-rule="nonzero"/></g><g fill="#242424" fill-opacity="1"><g transform="translate(102.819636, 277.827344)"><g><path d="M 3.921875 0.0625 C 3.265625 0.0625 2.640625 -0.046875 2.046875 -0.265625 C 1.453125 -0.492188 0.988281 -0.789062 0.65625 -1.15625 L 0.953125 -1.640625 C 1.265625 -1.304688 1.6875 -1.035156 2.21875 -0.828125 C 2.75 -0.617188 3.3125 -0.515625 3.90625 -0.515625 C 4.757812 -0.515625 5.398438 -0.675781 5.828125 -1 C 6.265625 -1.320312 6.484375 -1.742188 6.484375 -2.265625 C 6.484375 -2.660156 6.367188 -2.976562 6.140625 -3.21875 C 5.910156 -3.457031 5.625 -3.640625 5.28125 -3.765625 C 4.9375 -3.898438 4.476562 -4.035156 3.90625 -4.171875 C 3.25 -4.335938 2.722656 -4.492188 2.328125 -4.640625 C 1.929688 -4.796875 1.59375 -5.03125 1.3125 -5.34375 C 1.03125 -5.664062 0.890625 -6.097656 0.890625 -6.640625 C 0.890625 -7.078125 1.003906 -7.472656 1.234375 -7.828125 C 1.472656 -8.191406 1.828125 -8.476562 2.296875 -8.6875 C 2.765625 -8.90625 3.351562 -9.015625 4.0625 -9.015625 C 4.5625 -9.015625 5.050781 -8.941406 5.53125 -8.796875 C 6.007812 -8.660156 6.421875 -8.46875 6.765625 -8.21875 L 6.53125 -7.6875 C 6.164062 -7.9375 5.769531 -8.125 5.34375 -8.25 C 4.914062 -8.382812 4.488281 -8.453125 4.0625 -8.453125 C 3.238281 -8.453125 2.613281 -8.285156 2.1875 -7.953125 C 1.757812 -7.617188 1.546875 -7.1875 1.546875 -6.65625 C 1.546875 -6.25 1.660156 -5.925781 1.890625 -5.6875 C 2.117188 -5.457031 2.40625 -5.273438 2.75 -5.140625 C 3.09375 -5.015625 3.554688 -4.878906 4.140625 -4.734375 C 4.796875 -4.566406 5.320312 -4.40625 5.71875 -4.25 C 6.113281 -4.101562 6.445312 -3.875 6.71875 -3.5625 C 7 -3.25 7.140625 -2.828125 7.140625 -2.296875 C 7.140625 -1.867188 7.019531 -1.472656 6.78125 -1.109375 C 6.550781 -0.753906 6.191406 -0.46875 5.703125 -0.25 C 5.222656 -0.0390625 4.628906 0.0625 3.921875 0.0625 Z M 3.921875 0.0625 "/></g></g></g><g fill="#242424" fill-opacity="1"><g transform="translate(118.350875, 277.827344)"><g><path d="M 4.765625 -8.953125 C 5.898438 -8.953125 6.785156 -8.6875 7.421875 -8.15625 C 8.054688 -7.625 8.375 -6.882812 8.375 -5.9375 C 8.375 -5 8.054688 -4.265625 7.421875 -3.734375 C 6.785156 -3.203125 5.898438 -2.9375 4.765625 -2.9375 L 2.21875 -2.9375 L 2.21875 0 L 1.5625 0 L 1.5625 -8.953125 Z M 4.765625 -3.515625 C 5.722656 -3.515625 6.453125 -3.722656 6.953125 -4.140625 C 7.460938 -4.554688 7.71875 -5.15625 7.71875 -5.9375 C 7.71875 -6.71875 7.460938 -7.316406 6.953125 -7.734375 C 6.453125 -8.160156 5.722656 -8.375 4.765625 -8.375 L 2.21875 -8.375 L 2.21875 -3.515625 Z M 4.765625 -3.515625 "/></g></g></g><g fill="#242424" fill-opacity="1"><g transform="translate(135.237347, 277.827344)"><g><path d="M 7.109375 -2.515625 L 1.90625 -2.515625 L 0.765625 0 L 0.0625 0 L 4.1875 -8.953125 L 4.84375 -8.953125 L 8.953125 0 L 8.25 0 Z M 6.859375 -3.078125 L 4.5 -8.234375 L 2.15625 -3.078125 Z M 6.859375 -3.078125 "/></g></g></g><g fill="#242424" fill-opacity="1"><g transform="translate(151.995965, 277.827344)"><g><path d="M 5.34375 0.0625 C 4.46875 0.0625 3.675781 -0.128906 2.96875 -0.515625 C 2.269531 -0.910156 1.71875 -1.453125 1.3125 -2.140625 C 0.90625 -2.835938 0.703125 -3.617188 0.703125 -4.484375 C 0.703125 -5.335938 0.90625 -6.109375 1.3125 -6.796875 C 1.71875 -7.492188 2.269531 -8.035156 2.96875 -8.421875 C 3.675781 -8.816406 4.46875 -9.015625 5.34375 -9.015625 C 6 -9.015625 6.597656 -8.910156 7.140625 -8.703125 C 7.679688 -8.492188 8.144531 -8.1875 8.53125 -7.78125 L 8.125 -7.359375 C 7.40625 -8.066406 6.488281 -8.421875 5.375 -8.421875 C 4.625 -8.421875 3.941406 -8.25 3.328125 -7.90625 C 2.710938 -7.5625 2.226562 -7.085938 1.875 -6.484375 C 1.53125 -5.890625 1.359375 -5.222656 1.359375 -4.484375 C 1.359375 -3.734375 1.53125 -3.054688 1.875 -2.453125 C 2.226562 -1.859375 2.710938 -1.390625 3.328125 -1.046875 C 3.941406 -0.703125 4.625 -0.53125 5.375 -0.53125 C 6.476562 -0.53125 7.394531 -0.890625 8.125 -1.609375 L 8.53125 -1.1875 C 8.144531 -0.78125 7.675781 -0.46875 7.125 -0.25 C 6.582031 -0.0390625 5.988281 0.0625 5.34375 0.0625 Z M 5.34375 0.0625 "/></g></g></g><g fill="#242424" fill-opacity="1"><g transform="translate(168.89522, 277.827344)"><g><path d="M 7.734375 -0.59375 L 7.734375 0 L 1.5625 0 L 1.5625 -8.953125 L 7.546875 -8.953125 L 7.546875 -8.375 L 2.21875 -8.375 L 2.21875 -4.84375 L 6.984375 -4.84375 L 6.984375 -4.265625 L 2.21875 -4.265625 L 2.21875 -0.59375 Z M 7.734375 -0.59375 "/></g></g></g><g fill="#242424" fill-opacity="1"><g transform="translate(185.193569, 277.827344)"><g/></g></g><g fill="#242424" fill-opacity="1"><g transform="translate(196.224419, 277.827344)"><g><path d="M 3.921875 0.0625 C 3.265625 0.0625 2.640625 -0.046875 2.046875 -0.265625 C 1.453125 -0.492188 0.988281 -0.789062 0.65625 -1.15625 L 0.953125 -1.640625 C 1.265625 -1.304688 1.6875 -1.035156 2.21875 -0.828125 C 2.75 -0.617188 3.3125 -0.515625 3.90625 -0.515625 C 4.757812 -0.515625 5.398438 -0.675781 5.828125 -1 C 6.265625 -1.320312 6.484375 -1.742188 6.484375 -2.265625 C 6.484375 -2.660156 6.367188 -2.976562 6.140625 -3.21875 C 5.910156 -3.457031 5.625 -3.640625 5.28125 -3.765625 C 4.9375 -3.898438 4.476562 -4.035156 3.90625 -4.171875 C 3.25 -4.335938 2.722656 -4.492188 2.328125 -4.640625 C 1.929688 -4.796875 1.59375 -5.03125 1.3125 -5.34375 C 1.03125 -5.664062 0.890625 -6.097656 0.890625 -6.640625 C 0.890625 -7.078125 1.003906 -7.472656 1.234375 -7.828125 C 1.472656 -8.191406 1.828125 -8.476562 2.296875 -8.6875 C 2.765625 -8.90625 3.351562 -9.015625 4.0625 -9.015625 C 4.5625 -9.015625 5.050781 -8.941406 5.53125 -8.796875 C 6.007812 -8.660156 6.421875 -8.46875 6.765625 -8.21875 L 6.53125 -7.6875 C 6.164062 -7.9375 5.769531 -8.125 5.34375 -8.25 C 4.914062 -8.382812 4.488281 -8.453125 4.0625 -8.453125 C 3.238281 -8.453125 2.613281 -8.285156 2.1875 -7.953125 C 1.757812 -7.617188 1.546875 -7.1875 1.546875 -6.65625 C 1.546875 -6.25 1.660156 -5.925781 1.890625 -5.6875 C 2.117188 -5.457031 2.40625 -5.273438 2.75 -5.140625 C 3.09375 -5.015625 3.554688 -4.878906 4.140625 -4.734375 C 4.796875 -4.566406 5.320312 -4.40625 5.71875 -4.25 C 6.113281 -4.101562 6.445312 -3.875 6.71875 -3.5625 C 7 -3.25 7.140625 -2.828125 7.140625 -2.296875 C 7.140625 -1.867188 7.019531 -1.472656 6.78125 -1.109375 C 6.550781 -0.753906 6.191406 -0.46875 5.703125 -0.25 C 5.222656 -0.0390625 4.628906 0.0625 3.921875 0.0625 Z M 3.921875 0.0625 "/></g></g></g><g fill="#242424" fill-opacity="1"><g transform="translate(211.755664, 277.827344)"><g><path d="M 8.859375 -8.953125 L 8.859375 0 L 8.203125 0 L 8.203125 -4.265625 L 2.21875 -4.265625 L 2.21875 0 L 1.5625 0 L 1.5625 -8.953125 L 2.21875 -8.953125 L 2.21875 -4.84375 L 8.203125 -4.84375 L 8.203125 -8.953125 Z M 8.859375 -8.953125 "/></g></g></g><g fill="#242424" fill-opacity="1"><g transform="translate(229.90787, 277.827344)"><g><path d="M 7.109375 -2.515625 L 1.90625 -2.515625 L 0.765625 0 L 0.0625 0 L 4.1875 -8.953125 L 4.84375 -8.953125 L 8.953125 0 L 8.25 0 Z M 6.859375 -3.078125 L 4.5 -8.234375 L 2.15625 -3.078125 Z M 6.859375 -3.078125 "/></g></g></g><g fill="#242424" fill-opacity="1"><g transform="translate(246.666482, 277.827344)"><g><path d="M 7.78125 0 L 5.640625 -3 C 5.328125 -2.957031 5.035156 -2.9375 4.765625 -2.9375 L 2.21875 -2.9375 L 2.21875 0 L 1.5625 0 L 1.5625 -8.953125 L 4.765625 -8.953125 C 5.898438 -8.953125 6.785156 -8.6875 7.421875 -8.15625 C 8.054688 -7.625 8.375 -6.882812 8.375 -5.9375 C 8.375 -5.226562 8.191406 -4.628906 7.828125 -4.140625 C 7.472656 -3.660156 6.957031 -3.328125 6.28125 -3.140625 L 8.515625 0 Z M 4.765625 -3.5 C 5.722656 -3.5 6.453125 -3.707031 6.953125 -4.125 C 7.460938 -4.550781 7.71875 -5.15625 7.71875 -5.9375 C 7.71875 -6.71875 7.460938 -7.316406 6.953125 -7.734375 C 6.453125 -8.160156 5.722656 -8.375 4.765625 -8.375 L 2.21875 -8.375 L 2.21875 -3.5 Z M 4.765625 -3.5 "/></g></g></g><g fill="#242424" fill-opacity="1"><g transform="translate(263.616875, 277.827344)"><g><path d="M 7.734375 -0.59375 L 7.734375 0 L 1.5625 0 L 1.5625 -8.953125 L 7.546875 -8.953125 L 7.546875 -8.375 L 2.21875 -8.375 L 2.21875 -4.84375 L 6.984375 -4.84375 L 6.984375 -4.265625 L 2.21875 -4.265625 L 2.21875 -0.59375 Z M 7.734375 -0.59375 "/></g></g></g><g fill="#242424" fill-opacity="1"><g transform="translate(48.603526, 252.263055)"><g><path d="M 17.160156 0.769531 C 25.132812 0.769531 31.734375 -3.246094 31.734375 -11.550781 C 31.734375 -20.183594 24.363281 -22 18.535156 -23.484375 C 14.410156 -24.472656 11.109375 -25.300781 11.109375 -27.992188 C 11.109375 -30.523438 13.804688 -31.679688 16.5 -31.679688 C 19.632812 -31.679688 22.382812 -30.136719 22.382812 -26.785156 L 30.578125 -26.785156 C 30.578125 -34.484375 25.574219 -39.214844 16.71875 -39.214844 C 8.195312 -39.214844 2.75 -35.035156 2.75 -27.664062 C 2.75 -19.359375 9.789062 -17.652344 15.621094 -16.222656 C 19.800781 -15.289062 23.320312 -14.464844 23.320312 -11.441406 C 23.320312 -8.578125 20.238281 -6.929688 17.105469 -6.929688 C 13.695312 -6.929688 10.613281 -8.746094 10.613281 -12.429688 L 2.199219 -12.429688 C 2.199219 -4.179688 8.304688 0.769531 17.160156 0.769531 Z M 17.160156 0.769531 "/></g></g></g><g fill="#242424" fill-opacity="1"><g transform="translate(79.511055, 252.263055)"><g><path d="M 20.019531 -30.523438 C 16.335938 -30.523438 13.035156 -29.203125 10.503906 -26.949219 L 9.128906 -29.699219 L 3.851562 -29.699219 L 3.851562 10.722656 L 11.878906 10.722656 L 11.878906 -1.59375 C 14.132812 0 16.9375 0.933594 20.019531 0.933594 C 28.984375 0.933594 35.582031 -5.828125 35.582031 -14.847656 C 35.582031 -23.8125 28.984375 -30.523438 20.019531 -30.523438 Z M 19.359375 -6.710938 C 14.683594 -6.710938 11.273438 -10.175781 11.273438 -14.847656 C 11.273438 -19.46875 14.683594 -22.988281 19.359375 -22.988281 C 24.035156 -22.988281 27.445312 -19.46875 27.445312 -14.847656 C 27.445312 -10.175781 24.035156 -6.710938 19.359375 -6.710938 Z M 19.359375 -6.710938 "/></g></g></g><g fill="#242424" fill-opacity="1"><g transform="translate(113.883328, 252.263055)"><g><path d="M 17.929688 0.878906 C 27.113281 0.878906 33.988281 -5.882812 33.988281 -14.847656 C 33.988281 -23.8125 27.113281 -30.523438 17.929688 -30.523438 C 8.746094 -30.523438 1.871094 -23.8125 1.871094 -14.847656 C 1.871094 -5.882812 8.746094 0.878906 17.929688 0.878906 Z M 17.929688 -6.710938 C 13.308594 -6.710938 10.007812 -10.007812 10.007812 -14.847656 C 10.007812 -19.632812 13.308594 -22.988281 17.929688 -22.988281 C 22.550781 -22.988281 25.847656 -19.632812 25.847656 -14.847656 C 25.847656 -10.007812 22.550781 -6.710938 17.929688 -6.710938 Z M 17.929688 -6.710938 "/></g></g></g><g fill="#242424" fill-opacity="1"><g transform="translate(146.660721, 252.263055)"><g><path d="M 18.371094 -7.148438 C 15.398438 -7.148438 13.75 -8.800781 13.75 -11.660156 L 13.75 -23.207031 L 21.835938 -23.207031 L 21.835938 -29.699219 L 13.640625 -29.699219 L 13.640625 -37.398438 L 12.097656 -37.398438 L 0.386719 -24.96875 L 0.386719 -23.207031 L 5.71875 -23.207031 L 5.71875 -10.558594 C 5.71875 -4.015625 9.734375 0 16.277344 0 L 22 0 L 22 -7.148438 Z M 18.371094 -7.148438 "/></g></g></g><g fill="#242424" fill-opacity="1"><g transform="translate(167.174003, 252.263055)"><g><path d="M 27.390625 -30.742188 L 27.390625 -38.5 L 4.398438 -38.5 L 4.398438 0 L 12.703125 0 L 12.703125 -14.738281 L 25.957031 -14.738281 L 25.957031 -22.273438 L 12.703125 -22.273438 L 12.703125 -30.742188 Z M 27.390625 -30.742188 "/></g></g></g><g fill="#242424" fill-opacity="1"><g transform="translate(193.461858, 252.263055)"><g><path d="M 3.851562 -33.660156 L 11.824219 -33.660156 L 11.824219 -41.082031 L 3.851562 -41.082031 Z M 3.851562 0 L 11.878906 0 L 11.878906 -29.699219 L 3.851562 -29.699219 Z M 3.851562 0 "/></g></g></g><g fill="#242424" fill-opacity="1"><g transform="translate(206.055714, 252.263055)"><g><path d="M 20.734375 -30.359375 C 16.71875 -30.359375 13.144531 -28.652344 10.890625 -26.015625 L 9.347656 -29.699219 L 3.851562 -29.699219 L 3.851562 0 L 11.878906 0 L 11.878906 -15.5625 C 11.878906 -20.347656 14.410156 -23.320312 18.535156 -23.320312 C 22 -23.320312 23.703125 -21.175781 23.703125 -16.664062 L 23.703125 0 L 31.734375 0 L 31.734375 -17.984375 C 31.734375 -25.519531 27.5 -30.359375 20.734375 -30.359375 Z M 20.734375 -30.359375 "/></g></g></g><g fill="#242424" fill-opacity="1"><g transform="translate(238.173154, 252.263055)"><g><path d="M 25.628906 -40.367188 L 25.628906 -28.046875 C 23.320312 -29.644531 20.570312 -30.523438 17.488281 -30.523438 C 8.46875 -30.523438 1.871094 -23.8125 1.871094 -14.792969 C 1.871094 -5.828125 8.46875 0.933594 17.488281 0.933594 C 21.117188 0.933594 24.308594 -0.328125 26.785156 -2.417969 L 27.71875 0.0546875 L 33.660156 0.0546875 L 33.660156 -40.367188 Z M 18.148438 -6.65625 C 13.472656 -6.65625 10.066406 -10.175781 10.066406 -14.792969 C 10.066406 -19.46875 13.472656 -22.933594 18.148438 -22.933594 C 22.824219 -22.933594 26.234375 -19.46875 26.234375 -14.792969 C 26.234375 -10.175781 22.824219 -6.65625 18.148438 -6.65625 Z M 18.148438 -6.65625 "/></g></g></g><g fill="#242424" fill-opacity="1"><g transform="translate(272.600437, 252.263055)"><g><path d="M 32.667969 -14.90625 C 32.667969 -23.484375 26.398438 -30.523438 17.269531 -30.523438 C 8.46875 -30.523438 1.871094 -23.757812 1.871094 -14.847656 C 1.871094 -5.941406 8.523438 0.878906 17.269531 0.878906 C 24.199219 0.878906 29.863281 -3.246094 32.007812 -9.734375 L 23.59375 -9.734375 C 22.382812 -7.589844 20.074219 -6.269531 17.269531 -6.269531 C 13.363281 -6.269531 10.722656 -8.523438 10.007812 -12.59375 L 32.503906 -12.59375 C 32.613281 -13.363281 32.667969 -14.132812 32.667969 -14.90625 Z M 17.269531 -23.648438 C 20.898438 -23.648438 23.484375 -21.667969 24.640625 -18.039062 L 10.230469 -18.039062 C 11.164062 -21.558594 13.695312 -23.648438 17.269531 -23.648438 Z M 17.269531 -23.648438 "/></g></g></g><g fill="#242424" fill-opacity="1"><g transform="translate(304.002931, 252.263055)"><g><path d="M 19.027344 -29.863281 C 15.179688 -29.863281 12.539062 -28.652344 10.394531 -26.015625 L 8.964844 -29.699219 L 3.851562 -29.699219 L 3.851562 0 L 11.878906 0 L 11.878906 -15.398438 C 11.878906 -20.238281 13.640625 -22.273438 18.148438 -22.273438 L 21.667969 -22.273438 L 21.667969 -29.863281 Z M 19.027344 -29.863281 "/></g></g></g></svg>